<?xml version="1.0" encoding="UTF-8" standalone="no"?>
<!-- Generator: Adobe Illustrator 23.0.1, SVG Export Plug-In . SVG Version: 6.00 Build 0)  -->

<svg
   xmlns:dc="http://purl.org/dc/elements/1.1/"
   xmlns:cc="http://creativecommons.org/ns#"
   xmlns:rdf="http://www.w3.org/1999/02/22-rdf-syntax-ns#"
   xmlns:svg="http://www.w3.org/2000/svg"
   xmlns="http://www.w3.org/2000/svg"
   xmlns:sodipodi="http://sodipodi.sourceforge.net/DTD/sodipodi-0.dtd"
   xmlns:inkscape="http://www.inkscape.org/namespaces/inkscape"
   version="1.1"
   id="Layer_1"
   x="0px"
   y="0px"
   viewBox="0 0 111.427 100"
   xml:space="preserve"
   sodipodi:docname="ball.svg"
   width="111.427"
   height="100"
   inkscape:version="0.92.3 (2405546, 2018-03-11)"><metadata
   id="metadata19"><rdf:RDF><cc:Work
       rdf:about=""><dc:format>image/svg+xml</dc:format><dc:type
         rdf:resource="http://purl.org/dc/dcmitype/StillImage" /><dc:title></dc:title></cc:Work></rdf:RDF></metadata><defs
   id="defs17" /><sodipodi:namedview
   pagecolor="#ffffff"
   bordercolor="#666666"
   borderopacity="1"
   objecttolerance="10"
   gridtolerance="10"
   guidetolerance="10"
   inkscape:pageopacity="0"
   inkscape:pageshadow="2"
   inkscape:window-width="1920"
   inkscape:window-height="1001"
   id="namedview15"
   showgrid="false"
   inkscape:zoom="3.1466666"
   inkscape:cx="37.235162"
   inkscape:cy="93.696806"
   inkscape:window-x="-9"
   inkscape:window-y="-9"
   inkscape:window-maximized="1"
   inkscape:current-layer="Layer_1" />
<style
   type="text/css"
   id="style2">
	.st0{fill:#FFAB40;}
</style>



<path
   style="opacity:0.2;fill:#b3b3b3;stroke-width:0.47160915"
   inkscape:connector-curvature="0"
   class="st0"
   d="m 100.88423,45.30277 c -0.0661,-0.65553 -0.15092,-1.30163 -0.24524,-1.94302 C 99.370355,34.64912 95.616345,26.73081 90.126825,20.36409 89.551465,19.69911 88.961955,19.0483 88.353565,18.42106 80.100405,9.88965 68.531835,4.58404 55.718218,4.58404 c -12.813618,0 -24.38219,5.30561 -32.644781,13.83702 -0.608376,0.62724 -1.197888,1.27805 -1.768535,1.94303 -5.494247,6.36672 -9.243539,14.28503 -10.521599,22.99566 -0.09904,0.64139 -0.179211,1.28749 -0.245237,1.94302 -0.155631,1.54217 -0.240521,3.10791 -0.240521,4.69724 0,6.64025 1.42426,12.94094 3.985097,18.62383 0.292398,0.66025 0.60366,1.30165 0.933787,1.94303 7.503301,14.7425 22.821166,24.84909 40.501789,24.84909 17.680627,0 32.998487,-10.10659 40.501787,-24.84909 0.32541,-0.64138 0.63667,-1.28278 0.92436,-1.94303 2.56083,-5.68289 3.985095,-11.98358 3.985095,-18.62383 -0.009,-1.58933 -0.0896,-3.15507 -0.24523,-4.69724 z"
   id="path4-2" /></svg>