<?xml version="1.0" encoding="UTF-8" standalone="no"?>
<!-- Generator: Adobe Illustrator 23.0.1, SVG Export Plug-In . SVG Version: 6.00 Build 0)  -->

<svg
   xmlns:dc="http://purl.org/dc/elements/1.1/"
   xmlns:cc="http://creativecommons.org/ns#"
   xmlns:rdf="http://www.w3.org/1999/02/22-rdf-syntax-ns#"
   xmlns:svg="http://www.w3.org/2000/svg"
   xmlns="http://www.w3.org/2000/svg"
   xmlns:sodipodi="http://sodipodi.sourceforge.net/DTD/sodipodi-0.dtd"
   xmlns:inkscape="http://www.inkscape.org/namespaces/inkscape"
   version="1.1"
   x="0px"
   y="0px"
   viewBox="0 0 78.945 100"
   xml:space="preserve"
   id="svg976"
   sodipodi:docname="check.svg"
   inkscape:version="0.92.3 (2405546, 2018-03-11)"
   width="78.945"
   height="100"><metadata
   id="metadata982"><rdf:RDF><cc:Work
       rdf:about=""><dc:format>image/svg+xml</dc:format><dc:type
         rdf:resource="http://purl.org/dc/dcmitype/StillImage" /><dc:title></dc:title></cc:Work></rdf:RDF></metadata><defs
   id="defs980" /><sodipodi:namedview
   pagecolor="#ffffff"
   bordercolor="#666666"
   borderopacity="1"
   objecttolerance="10"
   gridtolerance="10"
   guidetolerance="10"
   inkscape:pageopacity="0"
   inkscape:pageshadow="2"
   inkscape:window-width="1920"
   inkscape:window-height="1001"
   id="namedview978"
   showgrid="false"
   inkscape:zoom="1.1125147"
   inkscape:cx="282.21274"
   inkscape:cy="201.59073"
   inkscape:window-x="-9"
   inkscape:window-y="-9"
   inkscape:window-maximized="1"
   inkscape:current-layer="svg976" />
<style
   type="text/css"
   id="style905">
	.st0{fill:#FFAB40;}
	.st1{fill:#FFFFFF;}
	.st2{fill:#448AFF;}
	.st3{font-family:'Ubuntu-Bold';}
	.st4{font-size:12px;}
</style>


<g
   id="g852"
   transform="translate(-466.9337,-4.5157897e-6)"><g
     transform="matrix(3.9704004,0,0,3.9704004,-263.62014,-241.45443)"
     id="_x31_.2">
	<g
   id="g911">
		<rect
   id="rect907"
   height="12.44"
   width="12.44"
   class="st0"
   y="73.059998"
   x="185.5"
   style="fill:#ffab40" />
		<path
   id="path909"
   d="M 197.44,73.56 V 85 H 186 V 73.56 h 11.44 m 1,-1 H 185 V 86 h 13.44 z"
   inkscape:connector-curvature="0" />
	</g>
	<g
   id="g917">
		<rect
   id="rect913"
   height="12.94"
   width="12.94"
   class="st1"
   y="72.25"
   x="184.25"
   style="fill:#ffffff" />
		<path
   id="path915"
   d="M 196.94,72.5 V 84.94 H 184.5 V 72.5 h 12.44 m 0.5,-0.5 H 184 v 13.44 h 13.44 z"
   inkscape:connector-curvature="0" />
	</g>
</g><g
     transform="matrix(3.9704004,0,0,3.9704004,-263.62014,-241.45443)"
     id="_x31_.1">
	<g
   id="g924">
		<g
   id="g922">
			<path
   id="path920"
   d="m 185.94,76.7 c 1.91,1.79 3.82,3.57 5.72,5.36 0.67,0.63 1.9,0.58 2.36,-0.3 3.23,-6.23 6.45,-12.45 9.68,-18.68 0.89,-1.71 -1.7,-3.23 -2.59,-1.51 -3.23,6.23 -6.45,12.45 -9.68,18.68 0.79,-0.1 1.57,-0.2 2.36,-0.3 -1.91,-1.79 -3.82,-3.57 -5.72,-5.36 -1.42,-1.33 -3.54,0.79 -2.13,2.11 z"
   class="st0"
   inkscape:connector-curvature="0"
   style="fill:#ffab40" />
		</g>
	</g>
</g></g>






</svg>