<?xml version="1.0" encoding="UTF-8" standalone="no"?>
<!-- Generator: Adobe Illustrator 23.0.1, SVG Export Plug-In . SVG Version: 6.00 Build 0)  -->

<svg
   xmlns:dc="http://purl.org/dc/elements/1.1/"
   xmlns:cc="http://creativecommons.org/ns#"
   xmlns:rdf="http://www.w3.org/1999/02/22-rdf-syntax-ns#"
   xmlns:svg="http://www.w3.org/2000/svg"
   xmlns="http://www.w3.org/2000/svg"
   xmlns:sodipodi="http://sodipodi.sourceforge.net/DTD/sodipodi-0.dtd"
   xmlns:inkscape="http://www.inkscape.org/namespaces/inkscape"
   version="1.1"
   id="Layer_1"
   x="0px"
   y="0px"
   viewBox="0 0 200 179.49001"
   xml:space="preserve"
   sodipodi:docname="logo-shadow.svg"
   width="200"
   height="179.49001"
   inkscape:version="0.92.3 (2405546, 2018-03-11)"><metadata
   id="metadata19"><rdf:RDF><cc:Work
       rdf:about=""><dc:format>image/svg+xml</dc:format><dc:type
         rdf:resource="http://purl.org/dc/dcmitype/StillImage" /><dc:title></dc:title></cc:Work></rdf:RDF></metadata><defs
   id="defs17" /><sodipodi:namedview
   pagecolor="#ffffff"
   bordercolor="#666666"
   borderopacity="1"
   objecttolerance="10"
   gridtolerance="10"
   guidetolerance="10"
   inkscape:pageopacity="0"
   inkscape:pageshadow="2"
   inkscape:window-width="1920"
   inkscape:window-height="1001"
   id="namedview15"
   showgrid="false"
   inkscape:zoom="1.5733333"
   inkscape:cx="155.37922"
   inkscape:cy="75"
   inkscape:window-x="-9"
   inkscape:window-y="-9"
   inkscape:window-maximized="1"
   inkscape:current-layer="Layer_1" />
<style
   type="text/css"
   id="style2">
	.st0{fill:#FFAB40;}
</style>


<g
   id="g831"
   transform="matrix(0.84648919,0,0,0.84648919,-26.884497,-37.186051)"><path
     id="path4"
     d="m 245.67,139.98 c -0.14,-1.39 -0.32,-2.76 -0.52,-4.12 -2.69,-18.47 -10.65,-35.26 -22.29,-48.76 -1.22,-1.41 -2.47,-2.79 -3.76,-4.12 -17.5,-18.09 -42.03,-29.34 -69.2,-29.34 -27.17,0 -51.7,11.25 -69.22,29.34 -1.29,1.33 -2.54,2.71 -3.75,4.12 -11.65,13.5 -19.6,30.29 -22.31,48.76 -0.21,1.36 -0.38,2.73 -0.52,4.12 -0.33,3.27 -0.51,6.59 -0.51,9.96 0,14.08 3.02,27.44 8.45,39.49 0.62,1.4 1.28,2.76 1.98,4.12 15.91,31.26 48.39,52.69 85.88,52.69 37.49,0 69.97,-21.43 85.88,-52.69 0.69,-1.36 1.35,-2.72 1.96,-4.12 5.43,-12.05 8.45,-25.41 8.45,-39.49 -0.02,-3.37 -0.19,-6.69 -0.52,-9.96 z"
     class="st0"
     inkscape:connector-curvature="0"
     style="fill:#ffab40" /><g
     id="g8">
	<path
   id="path6"
   d="m 70.15,228.41 c -0.72,-0.73 -1.42,-1.46 -2.1,-2.19 -0.01,-0.03 -0.04,-0.06 -0.07,-0.09 -0.67,-0.72 -1.33,-1.45 -1.97,-2.18 -0.93,-1.05 -1.84,-2.12 -2.73,-3.21 -0.53,-0.64 -1.05,-1.29 -1.55,-1.93 -0.61,-0.77 -1.21,-1.56 -1.8,-2.35 -0.07,-0.12 -0.16,-0.23 -0.25,-0.35 -0.58,-0.79 -1.15,-1.58 -1.71,-2.38 -0.03,-0.06 -0.07,-0.12 -0.1,-0.16 -0.54,-0.76 -1.07,-1.55 -1.58,-2.32 -0.1,-0.18 -0.2,-0.34 -0.32,-0.5 -0.56,-0.83 -1.08,-1.68 -1.59,-2.53 -1.11,-1.81 -2.16,-3.64 -3.17,-5.52 -0.01,-0.04 -0.03,-0.1 -0.06,-0.13 -1.11,-2.04 -2.13,-4.12 -3.11,-6.25 -0.37,-0.82 -0.74,-1.65 -1.08,-2.5 -0.28,-0.61 -0.54,-1.26 -0.79,-1.88 -0.98,-2.4 -1.87,-4.82 -2.67,-7.3 -1.4,-4.27 -2.54,-8.66 -3.42,-13.15 -0.32,-1.64 -0.6,-3.29 -0.85,-4.95 -0.13,-0.98 -0.28,-1.99 -0.39,-2.98 -0.12,-0.89 -0.22,-1.8 -0.29,-2.69 -0.1,-0.91 -0.18,-1.8 -0.23,-2.7 -0.06,-0.8 -0.12,-1.61 -0.16,-2.41 -0.01,-0.54 -0.04,-1.08 -0.06,-1.64 -0.01,-0.1 -0.01,-0.22 -0.01,-0.34 -0.03,-0.53 -0.04,-1.07 -0.04,-1.61 -0.01,-0.74 -0.03,-1.49 -0.03,-2.23 0,-0.8 0.01,-1.61 0.03,-2.4 0.01,-0.58 0.03,-1.15 0.06,-1.74 0.04,-1.46 0.12,-2.92 0.23,-4.37 0.04,-0.7 0.12,-1.4 0.18,-2.09 0.01,-0.15 0.03,-0.29 0.04,-0.44 0.07,-0.7 0.15,-1.4 0.23,-2.1 0.07,-0.61 0.15,-1.23 0.23,-1.84 0,-0.07 0.01,-0.15 0.03,-0.22 0.18,-1.31 0.37,-2.61 0.6,-3.9 0.16,-0.96 0.34,-1.91 0.53,-2.86 0.01,-0.1 0.04,-0.22 0.06,-0.32 0.61,-3.02 1.34,-6 2.19,-8.94 0.34,-1.17 0.7,-2.32 1.07,-3.48 1.04,-3.13 2.18,-6.19 3.48,-9.19 0.42,-1.01 0.88,-2 1.33,-2.98 0.44,-0.99 0.92,-1.97 1.4,-2.94 0.41,-0.85 0.83,-1.68 1.29,-2.51 0.23,-0.42 0.47,-0.86 0.7,-1.29 0.34,-0.63 0.69,-1.29 1.07,-1.91 0.5,-0.89 1.01,-1.75 1.53,-2.61 0.54,-0.86 1.07,-1.71 1.62,-2.56 0.55,-0.85 1.11,-1.69 1.68,-2.53 0.57,-0.84 1.15,-1.67 1.75,-2.48 0.28,-0.38 0.56,-0.76 0.86,-1.14 0.04,-0.09 0.1,-0.18 0.18,-0.25 0.04,-0.09 0.12,-0.18 0.19,-0.25 0.01,-0.04 0.04,-0.09 0.09,-0.13 0.12,-0.16 0.23,-0.34 0.38,-0.5 0.01,-0.03 0.03,-0.06 0.07,-0.09 0.56,-0.76 1.15,-1.5 1.75,-2.23 0.25,-0.31 0.51,-0.63 0.77,-0.93 0.19,-0.25 0.38,-0.48 0.58,-0.72 0.2,-0.25 0.41,-0.48 0.61,-0.72 0.16,-0.2 0.34,-0.41 0.53,-0.61 0.44,-0.51 0.89,-1.02 1.34,-1.52 0.85,-0.96 1.74,-1.91 2.66,-2.85 12.28,-12.74 27.56,-22.57 44.73,-28.37 -18.79,4.8 -35.6,14.41 -49.07,27.5 -1.17,1.12 -2.32,2.28 -3.45,3.48 -1.17,1.26 -2.32,2.53 -3.43,3.83 -1.24,1.43 -2.42,2.89 -3.58,4.38 -7.41,9.57 -13.28,20.42 -17.18,32.14 -0.38,1.15 -0.74,2.31 -1.1,3.48 -0.88,2.94 -1.64,5.92 -2.25,8.94 -0.25,1.15 -0.47,2.31 -0.67,3.48 -0.22,1.27 -0.41,2.54 -0.58,3.83 -0.2,1.45 -0.38,2.91 -0.51,4.38 -0.34,3.48 -0.51,7.01 -0.51,10.59 0,7.38 0.73,14.58 2.12,21.55 0.23,1.17 0.48,2.32 0.76,3.48 0.77,3.29 1.68,6.51 2.76,9.67 0.38,1.17 0.79,2.32 1.21,3.48 0.48,1.29 0.98,2.57 1.52,3.83 0.6,1.48 1.26,2.94 1.94,4.38 5.65,12.09 13.47,22.98 22.95,32.14 1.21,1.21 2.47,2.35 3.74,3.48 12.78,11.31 28.25,19.66 45.31,24 -16.75,-5.65 -31.74,-15.16 -43.88,-27.48 z"
   class="st0"
   inkscape:connector-curvature="0"
   style="fill:#ffab40" />
</g><g
     id="g12">
	<path
   id="path10"
   d="m 267.49,139.35 c -0.13,-1.48 -0.31,-2.94 -0.51,-4.38 -0.18,-1.29 -0.37,-2.56 -0.58,-3.83 -0.2,-1.17 -0.42,-2.32 -0.67,-3.48 -0.61,-3.02 -1.37,-6 -2.25,-8.94 -0.35,-1.17 -0.72,-2.32 -1.1,-3.48 -3.9,-11.71 -9.77,-22.57 -17.18,-32.14 -1.15,-1.49 -2.34,-2.95 -3.56,-4.38 -1.12,-1.3 -2.26,-2.57 -3.45,-3.83 -1.12,-1.2 -2.28,-2.35 -3.45,-3.48 -13.47,-13.07 -30.3,-22.7 -49.05,-27.48 17.16,5.8 32.44,15.63 44.73,28.37 0.73,0.74 1.45,1.5 2.13,2.28 0.1,0.1 0.2,0.2 0.29,0.31 0.26,0.29 0.53,0.58 0.77,0.88 0.26,0.28 0.51,0.57 0.76,0.88 0.41,0.45 0.8,0.91 1.2,1.37 0.19,0.22 0.38,0.47 0.57,0.7 h 0.01 c 0.04,0.07 0.1,0.13 0.16,0.2 0.5,0.6 0.99,1.2 1.46,1.81 0.15,0.18 0.29,0.35 0.42,0.53 0.48,0.6 0.95,1.21 1.39,1.84 h 0.01 c 0.13,0.18 0.25,0.35 0.38,0.53 0.56,0.72 1.08,1.46 1.59,2.21 0.01,0.03 0.04,0.06 0.06,0.09 0.16,0.22 0.32,0.45 0.48,0.69 0.34,0.48 0.67,0.96 0.98,1.46 0.32,0.47 0.64,0.93 0.93,1.42 0.47,0.72 0.92,1.45 1.36,2.16 0.04,0.06 0.07,0.1 0.1,0.16 0.53,0.86 1.04,1.72 1.53,2.61 0.38,0.63 0.73,1.29 1.07,1.91 0,0.01 0.01,0.01 0.01,0.03 0.03,0.06 0.06,0.1 0.09,0.16 0.22,0.37 0.41,0.73 0.6,1.1 0.45,0.83 0.88,1.67 1.29,2.51 0.48,0.96 0.96,1.94 1.4,2.94 0.45,0.98 0.91,1.97 1.33,2.98 1.3,2.99 2.45,6.06 3.48,9.19 0.37,1.15 0.73,2.31 1.07,3.48 0.85,2.94 1.58,5.92 2.19,8.94 0.01,0.1 0.04,0.22 0.06,0.32 0.19,0.95 0.37,1.9 0.53,2.86 0.03,0.1 0.04,0.19 0.06,0.29 0.22,1.27 0.41,2.54 0.57,3.83 0.09,0.54 0.15,1.08 0.2,1.62 0.1,0.74 0.18,1.49 0.25,2.23 0,0.03 0,0.06 0.01,0.09 0.01,0.15 0.03,0.29 0.04,0.44 0.06,0.69 0.13,1.39 0.18,2.09 0.07,0.93 0.13,1.87 0.18,2.8 v 0.01 c 0.03,0.44 0.04,0.86 0.06,1.3 v 0.25 c 0.03,0.57 0.04,1.15 0.06,1.74 0.01,0.79 0.03,1.59 0.03,2.4 0,0.53 0,1.04 -0.01,1.56 v 0.38 c 0,0.1 0,0.2 -0.01,0.29 0,0.54 -0.01,1.08 -0.04,1.61 0,0.12 0,0.23 -0.01,0.34 -0.01,0.56 -0.04,1.1 -0.06,1.64 -0.01,0.07 -0.01,0.15 -0.01,0.22 -0.04,0.73 -0.09,1.46 -0.15,2.19 -0.06,0.91 -0.15,1.81 -0.23,2.72 -0.07,0.89 -0.18,1.78 -0.29,2.67 -0.09,0.89 -0.2,1.78 -0.35,2.66 -0.25,1.78 -0.54,3.53 -0.88,5.27 -0.89,4.48 -2.03,8.88 -3.42,13.15 -0.8,2.48 -1.69,4.91 -2.67,7.3 -0.6,1.48 -1.23,2.94 -1.88,4.38 -1.37,3.01 -2.86,5.93 -4.5,8.78 -0.8,1.43 -1.65,2.83 -2.53,4.22 -0.41,0.69 -0.86,1.37 -1.31,2.06 -0.44,0.69 -0.91,1.36 -1.37,2.03 -0.45,0.67 -0.93,1.34 -1.42,2 -0.5,0.7 -1.01,1.39 -1.53,2.09 -0.47,0.61 -0.93,1.21 -1.42,1.81 -0.48,0.63 -0.98,1.24 -1.5,1.86 -2.07,2.51 -4.27,4.95 -6.57,7.29 -12.14,12.31 -27.11,21.82 -43.88,27.48 17.06,-4.34 32.52,-12.69 45.31,-24 1.27,-1.12 2.53,-2.28 3.74,-3.48 9.48,-9.16 17.29,-20.04 22.95,-32.14 0.69,-1.45 1.34,-2.91 1.94,-4.38 0.54,-1.26 1.04,-2.54 1.52,-3.83 0.42,-1.15 0.83,-2.31 1.21,-3.48 1.08,-3.16 1.99,-6.38 2.76,-9.67 0.28,-1.15 0.53,-2.31 0.76,-3.48 1.39,-6.97 2.12,-14.17 2.12,-21.55 -0.03,-3.57 -0.21,-7.1 -0.54,-10.58 z"
   class="st0"
   inkscape:connector-curvature="0"
   style="fill:#ffab40" />
</g></g>
</svg>