<?xml version="1.0" encoding="UTF-8" standalone="no"?>
<!-- Generator: Adobe Illustrator 23.0.1, SVG Export Plug-In . SVG Version: 6.00 Build 0)  -->

<svg
   xmlns:dc="http://purl.org/dc/elements/1.1/"
   xmlns:cc="http://creativecommons.org/ns#"
   xmlns:rdf="http://www.w3.org/1999/02/22-rdf-syntax-ns#"
   xmlns:svg="http://www.w3.org/2000/svg"
   xmlns="http://www.w3.org/2000/svg"
   xmlns:sodipodi="http://sodipodi.sourceforge.net/DTD/sodipodi-0.dtd"
   xmlns:inkscape="http://www.inkscape.org/namespaces/inkscape"
   version="1.1"
   id="Layer_1"
   x="0px"
   y="0px"
   viewBox="0 0 1844.175 750.00003"
   xml:space="preserve"
   sodipodi:docname="logo2.svg"
   inkscape:version="0.92.3 (2405546, 2018-03-11)"
   width="1844.175"
   height="750"><metadata
   id="metadata314"><rdf:RDF><cc:Work
       rdf:about=""><dc:format>image/svg+xml</dc:format><dc:type
         rdf:resource="http://purl.org/dc/dcmitype/StillImage" /><dc:title></dc:title></cc:Work></rdf:RDF></metadata><defs
   id="defs312">
	
	
	
	
	
	
	<linearGradient
   y2="96.987701"
   x2="9.1914997"
   y1="96.987701"
   x1="178.6528"
   gradientUnits="userSpaceOnUse"
   id="SVGID_3_">
		<stop
   id="stop54"
   style="stop-color:#808080"
   offset="0" />
		<stop
   id="stop56"
   style="stop-color:#858585"
   offset="0.25" />
		<stop
   id="stop58"
   style="stop-color:#808080"
   offset="0.25" />
		<stop
   id="stop60"
   style="stop-color:#808080"
   offset="0.5" />
		<stop
   id="stop62"
   style="stop-color:#A0A0A0"
   offset="0.6448" />
		<stop
   id="stop64"
   style="stop-color:#B3B3B3"
   offset="0.75" />
		<stop
   id="stop66"
   style="stop-color:#D3D3D3"
   offset="0.8948" />
		<stop
   id="stop68"
   style="stop-color:#E6E6E6"
   offset="1" />
	</linearGradient>
	
	<linearGradient
   y2="149.658"
   x2="36.5527"
   y1="149.658"
   x1="150.58031"
   gradientUnits="userSpaceOnUse"
   id="SVGID_4_">
		<stop
   id="stop73"
   style="stop-color:#808080"
   offset="0" />
		<stop
   id="stop75"
   style="stop-color:#858585"
   offset="0.25" />
		<stop
   id="stop77"
   style="stop-color:#808080"
   offset="0.25" />
		<stop
   id="stop79"
   style="stop-color:#808080"
   offset="0.5" />
		<stop
   id="stop81"
   style="stop-color:#A0A0A0"
   offset="0.6448" />
		<stop
   id="stop83"
   style="stop-color:#B3B3B3"
   offset="0.75" />
		<stop
   id="stop85"
   style="stop-color:#D3D3D3"
   offset="0.8948" />
		<stop
   id="stop87"
   style="stop-color:#E6E6E6"
   offset="1" />
	</linearGradient>
	
	<linearGradient
   y2="203.0123"
   x2="63.913799"
   y1="203.0123"
   x1="178.6528"
   gradientUnits="userSpaceOnUse"
   id="SVGID_5_">
		<stop
   id="stop92"
   style="stop-color:#808080"
   offset="0" />
		<stop
   id="stop94"
   style="stop-color:#858585"
   offset="0.25" />
		<stop
   id="stop96"
   style="stop-color:#808080"
   offset="0.25" />
		<stop
   id="stop98"
   style="stop-color:#808080"
   offset="0.5" />
		<stop
   id="stop100"
   style="stop-color:#A0A0A0"
   offset="0.6448" />
		<stop
   id="stop102"
   style="stop-color:#B3B3B3"
   offset="0.75" />
		<stop
   id="stop104"
   style="stop-color:#D3D3D3"
   offset="0.8948" />
		<stop
   id="stop106"
   style="stop-color:#E6E6E6"
   offset="1" />
	</linearGradient>
	
	<linearGradient
   y2="96.987701"
   x2="497.383"
   y1="96.987701"
   x1="327.9216"
   gradientUnits="userSpaceOnUse"
   id="SVGID_6_">
		<stop
   id="stop111"
   style="stop-color:#808080"
   offset="0" />
		<stop
   id="stop113"
   style="stop-color:#858585"
   offset="0.25" />
		<stop
   id="stop115"
   style="stop-color:#808080"
   offset="0.25" />
		<stop
   id="stop117"
   style="stop-color:#808080"
   offset="0.5" />
		<stop
   id="stop119"
   style="stop-color:#A0A0A0"
   offset="0.6448" />
		<stop
   id="stop121"
   style="stop-color:#B3B3B3"
   offset="0.75" />
		<stop
   id="stop123"
   style="stop-color:#D3D3D3"
   offset="0.8948" />
		<stop
   id="stop125"
   style="stop-color:#E6E6E6"
   offset="1" />
	</linearGradient>
	
	<linearGradient
   y2="149.658"
   x2="470.02179"
   y1="149.658"
   x1="355.9942"
   gradientUnits="userSpaceOnUse"
   id="SVGID_7_">
		<stop
   id="stop130"
   style="stop-color:#808080"
   offset="0" />
		<stop
   id="stop132"
   style="stop-color:#858585"
   offset="0.25" />
		<stop
   id="stop134"
   style="stop-color:#808080"
   offset="0.25" />
		<stop
   id="stop136"
   style="stop-color:#808080"
   offset="0.5" />
		<stop
   id="stop138"
   style="stop-color:#A0A0A0"
   offset="0.6448" />
		<stop
   id="stop140"
   style="stop-color:#B3B3B3"
   offset="0.75" />
		<stop
   id="stop142"
   style="stop-color:#D3D3D3"
   offset="0.8948" />
		<stop
   id="stop144"
   style="stop-color:#E6E6E6"
   offset="1" />
	</linearGradient>
	
	<linearGradient
   y2="191.3934"
   x2="349.63391"
   y1="191.3934"
   x1="349.47281"
   gradientUnits="userSpaceOnUse"
   id="SVGID_8_">
		<stop
   id="stop149"
   style="stop-color:#808080"
   offset="0" />
		<stop
   id="stop151"
   style="stop-color:#858585"
   offset="0.25" />
		<stop
   id="stop153"
   style="stop-color:#808080"
   offset="0.25" />
		<stop
   id="stop155"
   style="stop-color:#808080"
   offset="0.5" />
		<stop
   id="stop157"
   style="stop-color:#A0A0A0"
   offset="0.6448" />
		<stop
   id="stop159"
   style="stop-color:#B3B3B3"
   offset="0.75" />
		<stop
   id="stop161"
   style="stop-color:#D3D3D3"
   offset="0.8948" />
		<stop
   id="stop163"
   style="stop-color:#E6E6E6"
   offset="1" />
	</linearGradient>
	
	<linearGradient
   y2="203.0123"
   x2="442.66061"
   y1="203.0123"
   x1="327.9216"
   gradientUnits="userSpaceOnUse"
   id="SVGID_9_">
		<stop
   id="stop168"
   style="stop-color:#808080"
   offset="0" />
		<stop
   id="stop170"
   style="stop-color:#858585"
   offset="0.25" />
		<stop
   id="stop172"
   style="stop-color:#808080"
   offset="0.25" />
		<stop
   id="stop174"
   style="stop-color:#808080"
   offset="0.5" />
		<stop
   id="stop176"
   style="stop-color:#A0A0A0"
   offset="0.6448" />
		<stop
   id="stop178"
   style="stop-color:#B3B3B3"
   offset="0.75" />
		<stop
   id="stop180"
   style="stop-color:#D3D3D3"
   offset="0.8948" />
		<stop
   id="stop182"
   style="stop-color:#E6E6E6"
   offset="1" />
	</linearGradient>
	
	
	
	
	
	
	
	
	
	<linearGradient
   y2="150"
   x2="343.474"
   y1="150"
   x1="163.10049"
   gradientUnits="userSpaceOnUse"
   id="SVGID_10_"
   gradientTransform="translate(-58.436189,302.01849)">
		<stop
   id="stop203"
   style="stop-color:#808080"
   offset="0" />
		<stop
   id="stop205"
   style="stop-color:#858585"
   offset="0.25" />
		<stop
   id="stop207"
   style="stop-color:#808080"
   offset="0.25" />
		<stop
   id="stop209"
   style="stop-color:#808080"
   offset="0.5" />
		<stop
   id="stop211"
   style="stop-color:#A0A0A0"
   offset="0.6448" />
		<stop
   id="stop213"
   style="stop-color:#B3B3B3"
   offset="0.75" />
		<stop
   id="stop215"
   style="stop-color:#D3D3D3"
   offset="0.8948" />
		<stop
   id="stop217"
   style="stop-color:#E6E6E6"
   offset="1" />
	</linearGradient>
	<linearGradient
   y2="59.306801"
   x2="253.2872"
   y1="240.69321"
   x1="253.2872"
   gradientUnits="userSpaceOnUse"
   id="SVGID_11_"
   gradientTransform="translate(-58.436189,302.01849)">
		<stop
   id="stop220"
   style="stop-color:#808080"
   offset="0" />
		<stop
   id="stop222"
   style="stop-color:#858585"
   offset="0.25" />
		<stop
   id="stop224"
   style="stop-color:#808080"
   offset="0.25" />
		<stop
   id="stop226"
   style="stop-color:#808080"
   offset="0.5" />
		<stop
   id="stop228"
   style="stop-color:#A0A0A0"
   offset="0.6448" />
		<stop
   id="stop230"
   style="stop-color:#B3B3B3"
   offset="0.75" />
		<stop
   id="stop232"
   style="stop-color:#D3D3D3"
   offset="0.8948" />
		<stop
   id="stop234"
   style="stop-color:#E6E6E6"
   offset="1" />
	</linearGradient>
	
	
	
	
	
	
	
	
	
	
	
	
<radialGradient
   gradientUnits="userSpaceOnUse"
   r="159.1004"
   cy="82.906898"
   cx="235.0092"
   id="SVGID_13_-1"><stop
     id="stop266-8"
     style="stop-color:#808080"
     offset="0" /><stop
     id="stop268-2"
     style="stop-color:#858585"
     offset="0.25" /><stop
     id="stop270-6"
     style="stop-color:#808080"
     offset="0.25" /><stop
     id="stop272-8"
     style="stop-color:#808080"
     offset="0.5" /><stop
     id="stop274-4"
     style="stop-color:#A0A0A0"
     offset="0.6448" /><stop
     id="stop276-5"
     style="stop-color:#B3B3B3"
     offset="0.75" /><stop
     id="stop278-5"
     style="stop-color:#D3D3D3"
     offset="0.8948" /><stop
     id="stop280-3"
     style="stop-color:#E6E6E6"
     offset="1" /></radialGradient><radialGradient
   gradientUnits="userSpaceOnUse"
   r="159.1004"
   cy="82.906898"
   cx="235.0092"
   id="SVGID_12_-0"><stop
     id="stop245-2"
     style="stop-color:#808080"
     offset="0" /><stop
     id="stop247-5"
     style="stop-color:#858585"
     offset="0.25" /><stop
     id="stop249-2"
     style="stop-color:#808080"
     offset="0.25" /><stop
     id="stop251-6"
     style="stop-color:#808080"
     offset="0.5" /><stop
     id="stop253-5"
     style="stop-color:#A0A0A0"
     offset="0.6448" /><stop
     id="stop255-9"
     style="stop-color:#B3B3B3"
     offset="0.75" /><stop
     id="stop257-6"
     style="stop-color:#D3D3D3"
     offset="0.8948" /><stop
     id="stop259-8"
     style="stop-color:#E6E6E6"
     offset="1" /></radialGradient><linearGradient
   y2="150"
   x2="343.474"
   y1="150"
   x1="163.10049"
   gradientUnits="userSpaceOnUse"
   id="SVGID_10_-7"
   gradientTransform="translate(614.92535,17.786611)"><stop
     id="stop203-8"
     style="stop-color:#808080"
     offset="0" /><stop
     id="stop205-0"
     style="stop-color:#858585"
     offset="0.25" /><stop
     id="stop207-8"
     style="stop-color:#808080"
     offset="0.25" /><stop
     id="stop209-7"
     style="stop-color:#808080"
     offset="0.5" /><stop
     id="stop211-1"
     style="stop-color:#A0A0A0"
     offset="0.6448" /><stop
     id="stop213-8"
     style="stop-color:#B3B3B3"
     offset="0.75" /><stop
     id="stop215-2"
     style="stop-color:#D3D3D3"
     offset="0.8948" /><stop
     id="stop217-2"
     style="stop-color:#E6E6E6"
     offset="1" /></linearGradient><linearGradient
   y2="59.306801"
   x2="253.2872"
   y1="240.69321"
   x1="253.2872"
   gradientUnits="userSpaceOnUse"
   id="SVGID_11_-9"
   gradientTransform="translate(614.92535,17.786611)"><stop
     id="stop220-3"
     style="stop-color:#808080"
     offset="0" /><stop
     id="stop222-4"
     style="stop-color:#858585"
     offset="0.25" /><stop
     id="stop224-1"
     style="stop-color:#808080"
     offset="0.25" /><stop
     id="stop226-2"
     style="stop-color:#808080"
     offset="0.5" /><stop
     id="stop228-1"
     style="stop-color:#A0A0A0"
     offset="0.6448" /><stop
     id="stop230-1"
     style="stop-color:#B3B3B3"
     offset="0.75" /><stop
     id="stop232-5"
     style="stop-color:#D3D3D3"
     offset="0.8948" /><stop
     id="stop234-1"
     style="stop-color:#E6E6E6"
     offset="1" /></linearGradient><linearGradient
   gradientTransform="translate(614.93534,17.786611)"
   y2="203.0123"
   x2="442.66061"
   y1="203.0123"
   x1="327.9216"
   gradientUnits="userSpaceOnUse"
   id="SVGID_9_-9"><stop
     id="stop168-1"
     style="stop-color:#808080"
     offset="0" /><stop
     id="stop170-0"
     style="stop-color:#858585"
     offset="0.25" /><stop
     id="stop172-5"
     style="stop-color:#808080"
     offset="0.25" /><stop
     id="stop174-0"
     style="stop-color:#808080"
     offset="0.5" /><stop
     id="stop176-6"
     style="stop-color:#A0A0A0"
     offset="0.6448" /><stop
     id="stop178-3"
     style="stop-color:#B3B3B3"
     offset="0.75" /><stop
     id="stop180-9"
     style="stop-color:#D3D3D3"
     offset="0.8948" /><stop
     id="stop182-8"
     style="stop-color:#E6E6E6"
     offset="1" /></linearGradient><linearGradient
   gradientTransform="translate(614.93534,17.786611)"
   y2="191.3934"
   x2="349.63391"
   y1="191.3934"
   x1="349.47281"
   gradientUnits="userSpaceOnUse"
   id="SVGID_8_-0"><stop
     id="stop149-8"
     style="stop-color:#808080"
     offset="0" /><stop
     id="stop151-9"
     style="stop-color:#858585"
     offset="0.25" /><stop
     id="stop153-5"
     style="stop-color:#808080"
     offset="0.25" /><stop
     id="stop155-4"
     style="stop-color:#808080"
     offset="0.5" /><stop
     id="stop157-5"
     style="stop-color:#A0A0A0"
     offset="0.6448" /><stop
     id="stop159-8"
     style="stop-color:#B3B3B3"
     offset="0.75" /><stop
     id="stop161-5"
     style="stop-color:#D3D3D3"
     offset="0.8948" /><stop
     id="stop163-8"
     style="stop-color:#E6E6E6"
     offset="1" /></linearGradient><linearGradient
   gradientTransform="translate(614.93534,17.786611)"
   y2="149.658"
   x2="470.02179"
   y1="149.658"
   x1="355.9942"
   gradientUnits="userSpaceOnUse"
   id="SVGID_7_-2"><stop
     id="stop130-8"
     style="stop-color:#808080"
     offset="0" /><stop
     id="stop132-3"
     style="stop-color:#858585"
     offset="0.25" /><stop
     id="stop134-8"
     style="stop-color:#808080"
     offset="0.25" /><stop
     id="stop136-6"
     style="stop-color:#808080"
     offset="0.5" /><stop
     id="stop138-5"
     style="stop-color:#A0A0A0"
     offset="0.6448" /><stop
     id="stop140-0"
     style="stop-color:#B3B3B3"
     offset="0.75" /><stop
     id="stop142-7"
     style="stop-color:#D3D3D3"
     offset="0.8948" /><stop
     id="stop144-1"
     style="stop-color:#E6E6E6"
     offset="1" /></linearGradient><linearGradient
   gradientTransform="translate(614.93534,17.786611)"
   y2="96.987701"
   x2="497.383"
   y1="96.987701"
   x1="327.9216"
   gradientUnits="userSpaceOnUse"
   id="SVGID_6_-6"><stop
     id="stop111-1"
     style="stop-color:#808080"
     offset="0" /><stop
     id="stop113-0"
     style="stop-color:#858585"
     offset="0.25" /><stop
     id="stop115-7"
     style="stop-color:#808080"
     offset="0.25" /><stop
     id="stop117-6"
     style="stop-color:#808080"
     offset="0.5" /><stop
     id="stop119-7"
     style="stop-color:#A0A0A0"
     offset="0.6448" /><stop
     id="stop121-7"
     style="stop-color:#B3B3B3"
     offset="0.75" /><stop
     id="stop123-2"
     style="stop-color:#D3D3D3"
     offset="0.8948" /><stop
     id="stop125-8"
     style="stop-color:#E6E6E6"
     offset="1" /></linearGradient><linearGradient
   gradientTransform="translate(614.93534,17.786611)"
   y2="203.0123"
   x2="63.913799"
   y1="203.0123"
   x1="178.6528"
   gradientUnits="userSpaceOnUse"
   id="SVGID_5_-4"><stop
     id="stop92-6"
     style="stop-color:#808080"
     offset="0" /><stop
     id="stop94-6"
     style="stop-color:#858585"
     offset="0.25" /><stop
     id="stop96-2"
     style="stop-color:#808080"
     offset="0.25" /><stop
     id="stop98-8"
     style="stop-color:#808080"
     offset="0.5" /><stop
     id="stop100-0"
     style="stop-color:#A0A0A0"
     offset="0.6448" /><stop
     id="stop102-0"
     style="stop-color:#B3B3B3"
     offset="0.75" /><stop
     id="stop104-5"
     style="stop-color:#D3D3D3"
     offset="0.8948" /><stop
     id="stop106-7"
     style="stop-color:#E6E6E6"
     offset="1" /></linearGradient><linearGradient
   gradientTransform="translate(614.93534,17.786611)"
   y2="149.658"
   x2="36.5527"
   y1="149.658"
   x1="150.58031"
   gradientUnits="userSpaceOnUse"
   id="SVGID_4_-6"><stop
     id="stop73-4"
     style="stop-color:#808080"
     offset="0" /><stop
     id="stop75-9"
     style="stop-color:#858585"
     offset="0.25" /><stop
     id="stop77-5"
     style="stop-color:#808080"
     offset="0.25" /><stop
     id="stop79-6"
     style="stop-color:#808080"
     offset="0.5" /><stop
     id="stop81-2"
     style="stop-color:#A0A0A0"
     offset="0.6448" /><stop
     id="stop83-8"
     style="stop-color:#B3B3B3"
     offset="0.75" /><stop
     id="stop85-4"
     style="stop-color:#D3D3D3"
     offset="0.8948" /><stop
     id="stop87-5"
     style="stop-color:#E6E6E6"
     offset="1" /></linearGradient><linearGradient
   gradientTransform="translate(614.93534,17.786611)"
   y2="96.987701"
   x2="9.1914997"
   y1="96.987701"
   x1="178.6528"
   gradientUnits="userSpaceOnUse"
   id="SVGID_3_-2"><stop
     id="stop54-0"
     style="stop-color:#808080"
     offset="0" /><stop
     id="stop56-1"
     style="stop-color:#858585"
     offset="0.25" /><stop
     id="stop58-8"
     style="stop-color:#808080"
     offset="0.25" /><stop
     id="stop60-1"
     style="stop-color:#808080"
     offset="0.5" /><stop
     id="stop62-8"
     style="stop-color:#A0A0A0"
     offset="0.6448" /><stop
     id="stop64-1"
     style="stop-color:#B3B3B3"
     offset="0.75" /><stop
     id="stop66-6"
     style="stop-color:#D3D3D3"
     offset="0.8948" /><stop
     id="stop68-8"
     style="stop-color:#E6E6E6"
     offset="1" /></linearGradient></defs><sodipodi:namedview
   pagecolor="#ffffff"
   bordercolor="#666666"
   borderopacity="1"
   objecttolerance="10"
   gridtolerance="10"
   guidetolerance="10"
   inkscape:pageopacity="0"
   inkscape:pageshadow="2"
   inkscape:window-width="1920"
   inkscape:window-height="1001"
   id="namedview310"
   showgrid="false"
   inkscape:snap-bbox="true"
   inkscape:bbox-paths="true"
   inkscape:bbox-nodes="true"
   inkscape:snap-bbox-edge-midpoints="true"
   inkscape:object-paths="true"
   inkscape:snap-intersection-paths="true"
   inkscape:snap-midpoints="true"
   inkscape:snap-smooth-nodes="true"
   inkscape:snap-bbox-midpoints="true"
   inkscape:zoom="0.35355339"
   inkscape:cx="376.59574"
   inkscape:cy="465.38673"
   inkscape:window-x="-9"
   inkscape:window-y="-9"
   inkscape:window-maximized="1"
   inkscape:current-layer="Layer_1" />
<style
   type="text/css"
   id="style2">
	.st0{display:none;}
	.st1{display:none;fill:url(#SVGID_1_);stroke:url(#SVGID_2_);stroke-miterlimit:10;}
	.st2{fill:url(#SVGID_3_);}
	.st3{fill:url(#SVGID_4_);}
	.st4{fill:url(#SVGID_5_);}
	.st5{fill:url(#SVGID_6_);}
	.st6{fill:url(#SVGID_7_);}
	.st7{fill:url(#SVGID_8_);}
	.st8{fill:url(#SVGID_9_);}
	.st9{opacity:0.1;fill:#FFFFFF;}
	.st10{fill:#FFFFFF;}
	.st11{fill:url(#SVGID_10_);stroke:url(#SVGID_11_);stroke-miterlimit:10;}
	.st12{fill:url(#SVGID_12_);}
	.st13{fill:url(#SVGID_13_);}
	.st14{fill:#4D4D4D;}
	.st15{font-family:'BodoniMT-Italic';}
	.st16{font-size:98.5002px;}
	.st17{font-size:142.1347px;}
	.st18{fill:#CCCCCC;}
</style>
<circle
   class="st0"
   cx="185.38"
   cy="600"
   r="76.599998"
   id="circle4"
   style="display:none" />
<radialGradient
   id="SVGID_1_"
   cx="239.935"
   cy="150"
   r="109.7521"
   gradientUnits="userSpaceOnUse"
   gradientTransform="translate(0,450.0001)">
	<stop
   offset="0"
   style="stop-color:#808080"
   id="stop6" />
	<stop
   offset="0.25"
   style="stop-color:#858585"
   id="stop8" />
	<stop
   offset="0.25"
   style="stop-color:#808080"
   id="stop10" />
	<stop
   offset="0.5"
   style="stop-color:#808080"
   id="stop12" />
	<stop
   offset="0.6448"
   style="stop-color:#A0A0A0"
   id="stop14" />
	<stop
   offset="0.75"
   style="stop-color:#B3B3B3"
   id="stop16" />
	<stop
   offset="0.8948"
   style="stop-color:#D3D3D3"
   id="stop18" />
	<stop
   offset="1"
   style="stop-color:#E6E6E6"
   id="stop20" />
</radialGradient>
<linearGradient
   id="SVGID_2_"
   gradientUnits="userSpaceOnUse"
   x1="239.935"
   y1="220.61"
   x2="239.935"
   y2="79.389999"
   gradientTransform="translate(0,450.0001)">
	<stop
   offset="0"
   style="stop-color:#808080"
   id="stop23" />
	<stop
   offset="0.25"
   style="stop-color:#858585"
   id="stop25" />
	<stop
   offset="0.25"
   style="stop-color:#808080"
   id="stop27" />
	<stop
   offset="0.5"
   style="stop-color:#808080"
   id="stop29" />
	<stop
   offset="0.6448"
   style="stop-color:#A0A0A0"
   id="stop31" />
	<stop
   offset="0.75"
   style="stop-color:#B3B3B3"
   id="stop33" />
	<stop
   offset="0.8948"
   style="stop-color:#D3D3D3"
   id="stop35" />
	<stop
   offset="1"
   style="stop-color:#E6E6E6"
   id="stop37" />
</linearGradient>
<path
   class="st1"
   d="m 309.67,592.7501 c -0.1,-1.01 -0.23,-2.01 -0.38,-3 -1.96,-13.45 -7.75,-25.67 -16.23,-35.5 -0.89,-1.03 -1.8,-2.03 -2.74,-3 -12.74,-13.17 -30.6,-21.36 -50.38,-21.36 -19.78,0 -37.64,8.19 -50.39,21.36 -0.94,0.97 -1.85,1.97 -2.73,3 -8.48,9.83 -14.27,22.05 -16.24,35.5 -0.15,0.99 -0.28,1.99 -0.38,3 -0.24,2.38 -0.37,4.8 -0.37,7.25 0,10.25 2.2,19.98 6.15,28.75 0.45,1.02 0.93,2.01 1.44,3 11.58,22.76 35.23,38.36 62.52,38.36 27.29,0 50.94,-15.6 62.52,-38.36 0.5,-0.99 0.98,-1.98 1.43,-3 3.95,-8.77 6.15,-18.5 6.15,-28.75 0,-2.45 -0.13,-4.87 -0.37,-7.25 z"
   id="path40"
   inkscape:connector-curvature="0"
   style="display:none;fill:url(#SVGID_1_);stroke:url(#SVGID_2_);stroke-miterlimit:10" />

<g
   id="g1122"
   style="opacity:0.1"
   transform="matrix(3.7775763,0,0,3.7775763,-34.715889,-191.67422)"><path
     style="opacity:1;fill:#212121;fill-opacity:1"
     d="m 175.59,79.72 c -10.52,11.6 -18.47,25.58 -22.96,41.04 H 50.23 C 27.56,120.76 9.19,102.39 9.19,79.72 Z"
     id="path42"
     inkscape:connector-curvature="0" /><path
     style="opacity:1;fill:#212121;fill-opacity:1"
     d="M 150.46,173.43 H 77.59 c -22.67,0 -41.04,-18.37 -41.04,-41.04 h 113.43 c -0.97,5.72 -1.48,11.6 -1.48,17.61 0,0.49 0,0.97 0.01,1.46 v 0.14 c -0.01,0.55 -0.01,1.11 -0.01,1.66 0,6.9 0.68,13.65 1.96,20.17 z"
     id="path44"
     inkscape:connector-curvature="0" /><path
     style="opacity:1;fill:#212121;fill-opacity:1"
     d="M 153.66,185.75 H 63.92 c 0,22.67 18.38,41.04 41.04,41.04 h 73.7 c -11.26,-11.42 -19.91,-25.43 -25,-41.04 z"
     id="path46"
     inkscape:connector-curvature="0" /><path
     style="opacity:1;fill:#212121;fill-opacity:1"
     d="m 497.38,79.72 c 0,22.67 -18.37,41.04 -41.04,41.04 H 353.94 C 349.45,105.3 341.5,91.32 330.98,79.72 Z"
     id="path48"
     inkscape:connector-curvature="0" /><path
     style="opacity:1;fill:#212121;fill-opacity:1"
     d="m 470.02,132.39 c 0,22.67 -18.37,41.04 -41.04,41.04 h -72.86 c 1.27,-6.53 1.96,-13.27 1.96,-20.18 0,-0.55 0,-1.11 -0.01,-1.66 v -0.14 c 0.01,-0.49 0.01,-0.97 0.01,-1.46 0,-6.01 -0.51,-11.89 -1.48,-17.61 h 113.42 z"
     id="path50"
     inkscape:connector-curvature="0" /><path
     style="opacity:1;fill:#212121;fill-opacity:1"
     d="m 352.92,185.75 h 89.75 c 0,22.67 -18.38,41.04 -41.04,41.04 h -73.7 c 11.25,-11.42 19.9,-25.43 24.99,-41.04 z"
     id="path52"
     inkscape:connector-curvature="0" /><path
     class="st2"
     d="m 178.65,76.47 c -0.27,0.27 -0.55,0.56 -0.79,0.83 -0.86,0.88 -1.7,1.76 -2.49,2.67 -0.44,0.47 -0.86,0.94 -1.26,1.42 -0.18,0.19 -0.34,0.38 -0.49,0.57 -0.4,0.44 -0.77,0.89 -1.15,1.34 h -5.1 c -1.16,1.34 -2.27,2.71 -3.35,4.1 h 5.24 c -0.26,0.36 -0.53,0.71 -0.78,1.07 -0.56,0.77 -1.11,1.55 -1.64,2.33 -0.55,0.78 -1.07,1.57 -1.57,2.37 -0.52,0.79 -1.01,1.59 -1.52,2.39 -0.49,0.81 -0.97,1.63 -1.44,2.45 -0.34,0.6 -0.68,1.19 -1,1.79 -0.22,0.4 -0.44,0.81 -0.66,1.2 -0.41,0.78 -0.81,1.57 -1.2,2.35 -0.45,0.92 -0.89,1.83 -1.31,2.75 -0.42,0.92 -0.85,1.85 -1.24,2.79 -1.19,2.8 -2.27,5.68 -3.23,8.61 H 50.23 C 27.56,117.5 9.19,99.13 9.19,76.46 h 169.46 z"
     id="path71"
     style="opacity:1;fill:#212121;fill-opacity:1"
     inkscape:connector-curvature="0" /><path
     class="st3"
     d="m 143.62,135.98 c -0.19,1.35 -0.36,2.72 -0.48,4.1 h 5.83 c 0.01,-0.14 0.03,-0.27 0.04,-0.41 -0.01,0.14 -0.03,0.27 -0.03,0.41 -0.07,0.64 -0.12,1.3 -0.18,1.96 -0.11,1.35 -0.18,2.72 -0.22,4.09 -0.03,0.53 -0.04,1.08 -0.05,1.63 -0.01,0.74 -0.03,1.49 -0.03,2.24 0,0.7 0.01,1.4 0.03,2.09 0,0.51 0.01,1.01 0.04,1.5 0,0.11 0,0.22 0.01,0.31 0.01,0.52 0.03,1.03 0.05,1.53 0.04,0.75 0.1,1.5 0.15,2.26 0.05,0.85 0.14,1.68 0.22,2.53 0.08,0.85 0.16,1.68 0.27,2.52 0.11,0.93 0.25,1.87 0.37,2.79 0.25,1.56 0.51,3.11 0.81,4.64 H 77.59 c -22.67,0 -41.04,-18.37 -41.04,-41.04 h 114.03 c -0.01,0.1 -0.04,0.21 -0.05,0.3 -0.18,0.89 -0.34,1.78 -0.49,2.68 -0.22,1.2 -0.4,2.42 -0.56,3.65 -0.01,0.07 -0.03,0.14 -0.03,0.21 h -5.83 z"
     id="path90"
     style="opacity:1;fill:#212121;fill-opacity:1"
     inkscape:connector-curvature="0" /><path
     class="st4"
     d="m 178.65,223.53 h -73.7 c -22.67,0 -41.04,-18.37 -41.04,-41.04 h 89.74 c 0.75,2.31 1.59,4.6 2.5,6.84 0.23,0.59 0.48,1.18 0.73,1.76 -0.26,-0.57 -0.51,-1.18 -0.74,-1.76 h -5.65 c 0.56,1.38 1.18,2.75 1.82,4.1 h 5.58 c -0.34,-0.77 -0.7,-1.55 -1.01,-2.34 0.34,0.79 0.68,1.57 1.04,2.34 0.9,1.98 1.86,3.94 2.89,5.86 0.03,0.03 0.04,0.08 0.05,0.12 0.94,1.75 1.93,3.47 2.97,5.17 0.49,0.79 0.99,1.59 1.49,2.37 0.11,0.15 0.21,0.3 0.3,0.47 0.48,0.73 0.97,1.45 1.48,2.18 0.03,0.04 0.07,0.1 0.1,0.15 0.52,0.75 1.05,1.49 1.6,2.23 0.08,0.11 0.16,0.22 0.23,0.33 0.56,0.74 1.11,1.48 1.68,2.2 0.47,0.6 0.96,1.22 1.45,1.81 0.83,1.03 1.68,2.02 2.56,3.01 0.6,0.68 1.22,1.37 1.85,2.04 0.03,0.03 0.05,0.05 0.07,0.08 0.66,0.7 1.31,1.38 1.97,2.05 z"
     id="path109"
     style="opacity:1;fill:#212121;fill-opacity:1"
     inkscape:connector-curvature="0" /><path
     class="st5"
     d="m 497.38,76.47 c 0,22.67 -18.37,41.04 -41.04,41.04 H 352.92 c -0.96,-2.93 -2.04,-5.8 -3.23,-8.61 -0.4,-0.94 -0.82,-1.87 -1.24,-2.79 -0.42,-0.92 -0.86,-1.83 -1.31,-2.75 -0.4,-0.78 -0.79,-1.57 -1.2,-2.35 -0.18,-0.34 -0.36,-0.68 -0.56,-1.03 -0.03,-0.05 -0.05,-0.1 -0.08,-0.15 0,-0.01 -0.01,-0.01 -0.01,-0.03 -0.31,-0.59 -0.64,-1.2 -1,-1.79 -0.47,-0.82 -0.94,-1.64 -1.44,-2.45 -0.03,-0.05 -0.05,-0.1 -0.1,-0.15 -0.41,-0.67 -0.83,-1.35 -1.27,-2.02 -0.27,-0.45 -0.57,-0.89 -0.88,-1.33 -0.29,-0.47 -0.6,-0.92 -0.92,-1.37 -0.15,-0.22 -0.3,-0.44 -0.45,-0.64 -0.01,-0.03 -0.04,-0.05 -0.05,-0.08 -0.49,-0.7 -0.99,-1.38 -1.49,-2.07 -0.11,-0.16 -0.23,-0.33 -0.37,-0.49 h 5.25 c -1.08,-1.4 -2.19,-2.76 -3.34,-4.1 h -5.14 c -0.18,-0.22 -0.36,-0.45 -0.53,-0.66 -0.37,-0.44 -0.74,-0.86 -1.12,-1.29 -0.21,-0.27 -0.45,-0.55 -0.71,-0.82 -0.23,-0.27 -0.48,-0.55 -0.73,-0.82 -0.08,-0.1 -0.18,-0.19 -0.27,-0.29 -0.64,-0.73 -1.31,-1.44 -2,-2.13 -0.25,-0.27 -0.52,-0.56 -0.79,-0.83 z"
     id="path128"
     style="opacity:1;fill:#212121;fill-opacity:1"
     inkscape:connector-curvature="0" /><path
     class="st6"
     d="m 470.02,129.14 c 0,22.67 -18.37,41.04 -41.04,41.04 h -72.86 c 0.31,-1.63 0.6,-3.27 0.85,-4.94 0.14,-0.82 0.25,-1.66 0.33,-2.49 0.11,-0.83 0.21,-1.67 0.27,-2.5 0.08,-0.85 0.16,-1.7 0.22,-2.54 0.05,-0.68 0.1,-1.37 0.14,-2.05 0,-0.07 0,-0.14 0.01,-0.21 0.01,-0.51 0.04,-1.01 0.05,-1.53 0.01,-0.1 0.01,-0.21 0.01,-0.31 0.03,-0.49 0.04,-1 0.04,-1.5 0.01,-0.08 0.01,-0.18 0.01,-0.27 v -0.36 c 0.01,-0.49 0.01,-0.97 0.01,-1.46 0,-0.75 -0.01,-1.5 -0.03,-2.24 -0.01,-0.55 -0.03,-1.09 -0.05,-1.63 v -0.23 c -0.01,-0.41 -0.03,-0.81 -0.05,-1.22 v -0.01 c -0.04,-0.88 -0.1,-1.75 -0.16,-2.63 -0.03,-0.49 -0.07,-0.99 -0.12,-1.46 -0.01,-0.16 -0.03,-0.33 -0.05,-0.49 0,-0.14 -0.01,-0.27 -0.03,-0.41 0.01,0.14 0.03,0.27 0.04,0.41 h 5.83 c -0.12,-1.38 -0.29,-2.75 -0.48,-4.1 h -5.83 c -0.15,-1.2 -0.33,-2.39 -0.53,-3.58 -0.01,-0.1 -0.03,-0.18 -0.05,-0.27 -0.14,-0.9 -0.31,-1.79 -0.49,-2.68 -0.01,-0.1 -0.04,-0.21 -0.05,-0.3 h 114.01 z"
     id="path147"
     style="opacity:1;fill:#212121;fill-opacity:1"
     inkscape:connector-curvature="0" /><path
     class="st7"
     d="m 349.63,191.21 c -0.05,0.13 -0.11,0.25 -0.16,0.37 0.06,-0.12 0.11,-0.25 0.16,-0.37 z"
     id="path166"
     style="opacity:1;fill:#212121;fill-opacity:1"
     inkscape:connector-curvature="0" /><path
     class="st8"
     d="m 442.66,182.49 c 0,22.67 -18.37,41.04 -41.04,41.04 h -73.7 c 2.16,-2.19 4.21,-4.47 6.16,-6.83 0.48,-0.57 0.96,-1.15 1.41,-1.74 0.45,-0.56 0.89,-1.14 1.33,-1.7 0.49,-0.66 0.97,-1.3 1.44,-1.96 0.45,-0.62 0.89,-1.24 1.33,-1.87 0.44,-0.63 0.86,-1.26 1.29,-1.9 0.42,-0.64 0.85,-1.29 1.23,-1.93 0.82,-1.3 1.6,-2.61 2.37,-3.95 1.5,-2.67 2.9,-5.42 4.19,-8.22 0.28,-0.62 0.55,-1.23 0.83,-1.86 -0.27,0.62 -0.52,1.24 -0.8,1.86 h 5.58 c 0.64,-1.35 1.26,-2.72 1.82,-4.1 h -5.64 c -0.26,0.63 -0.54,1.25 -0.81,1.87 0.27,-0.62 0.53,-1.25 0.78,-1.87 0.92,-2.24 1.75,-4.53 2.5,-6.84 z"
     id="path185"
     style="opacity:1;fill:#212121;fill-opacity:1"
     inkscape:connector-curvature="0" /><path
     class="st9"
     d="m 36.55,83.31 h 130.81 c -1.16,1.34 -2.27,2.71 -3.35,4.1 H 40.66 c -2.27,0 -4.11,-1.83 -4.11,-4.1 z"
     id="path187"
     inkscape:connector-curvature="0"
     style="opacity:1;fill:#212121;fill-opacity:1" /><path
     class="st10"
     d="m 169.25,87.41 c 0.05,-0.07 0.11,-0.15 0.19,-0.23 -0.07,0.07 -0.12,0.15 -0.16,0.23 z"
     id="path189"
     inkscape:connector-curvature="0"
     style="opacity:1;fill:#212121;fill-opacity:1" /><path
     class="st10"
     d="m 172.47,83.31 h 0.03 c -0.25,0.29 -0.49,0.59 -0.73,0.88 0.23,-0.31 0.47,-0.6 0.7,-0.88 z"
     id="path191"
     inkscape:connector-curvature="0"
     style="opacity:1;fill:#212121;fill-opacity:1" /><path
     class="st9"
     d="m 470.02,83.31 c 0,1.14 -0.47,2.16 -1.2,2.9 -0.74,0.75 -1.76,1.2 -2.9,1.2 H 342.56 c -1.08,-1.4 -2.19,-2.76 -3.34,-4.1 z"
     id="path193"
     inkscape:connector-curvature="0"
     style="opacity:1;fill:#212121;fill-opacity:1" /><path
     class="st9"
     d="m 63.91,135.98 h 79.7 c -0.19,1.35 -0.36,2.72 -0.48,4.1 H 68.02 c -2.27,0 -4.11,-1.83 -4.11,-4.1 z"
     id="path195"
     inkscape:connector-curvature="0"
     style="opacity:1;fill:#212121;fill-opacity:1" /><path
     class="st10"
     d="m 148.97,140.08 c 0.01,-0.14 0.03,-0.27 0.04,-0.41 -0.01,0.14 -0.03,0.27 -0.03,0.41 z"
     id="path197"
     inkscape:connector-curvature="0"
     style="opacity:1;fill:#212121;fill-opacity:1" /><path
     class="st10"
     d="m 357.61,140.08 h -0.01 c 0,-0.14 -0.01,-0.27 -0.03,-0.41 0.01,0.14 0.02,0.27 0.04,0.41 z"
     id="path199"
     inkscape:connector-curvature="0"
     style="opacity:1;fill:#212121;fill-opacity:1" /><path
     class="st9"
     d="m 442.66,135.98 c 0,1.14 -0.47,2.16 -1.2,2.9 -0.74,0.75 -1.76,1.2 -2.9,1.2 h -75.12 c -0.12,-1.38 -0.29,-2.75 -0.48,-4.1 z"
     id="path201"
     inkscape:connector-curvature="0"
     style="opacity:1;fill:#212121;fill-opacity:1" /><path
     class="st9"
     d="m 150.5,189.33 c 0.56,1.38 1.18,2.75 1.82,4.1 H 95.38 c -2.27,0 -4.1,-1.83 -4.1,-4.1 z"
     id="path239"
     inkscape:connector-curvature="0"
     style="opacity:1;fill:#212121;fill-opacity:1" /><path
     class="st10"
     d="m 156.16,189.33 c 0.23,0.59 0.48,1.18 0.73,1.76 -0.26,-0.57 -0.51,-1.18 -0.74,-1.76 z"
     id="path241"
     inkscape:connector-curvature="0"
     style="opacity:1;fill:#212121;fill-opacity:1" /><path
     class="st10"
     d="m 157.93,193.44 h -0.03 c -0.34,-0.77 -0.7,-1.55 -1.01,-2.34 0.34,0.79 0.68,1.57 1.04,2.34 z"
     id="path243"
     inkscape:connector-curvature="0"
     style="opacity:1;fill:#212121;fill-opacity:1" /><g
     style="opacity:1;fill:#212121;fill-opacity:1"
     id="g264">
		<radialGradient
   id="SVGID_12_"
   cx="235.0092"
   cy="82.906898"
   r="159.1004"
   gradientUnits="userSpaceOnUse">
			<stop
   offset="0"
   style="stop-color:#808080"
   id="stop245" />
			<stop
   offset="0.25"
   style="stop-color:#858585"
   id="stop247" />
			<stop
   offset="0.25"
   style="stop-color:#808080"
   id="stop249" />
			<stop
   offset="0.5"
   style="stop-color:#808080"
   id="stop251" />
			<stop
   offset="0.6448"
   style="stop-color:#A0A0A0"
   id="stop253" />
			<stop
   offset="0.75"
   style="stop-color:#B3B3B3"
   id="stop255" />
			<stop
   offset="0.8948"
   style="stop-color:#D3D3D3"
   id="stop257" />
			<stop
   offset="1"
   style="stop-color:#E6E6E6"
   id="stop259" />
		</radialGradient>
		<path
   class="st12"
   d="m 178.61,223.49 c -0.67,-0.68 -1.33,-1.37 -1.97,-2.05 -0.01,-0.03 -0.04,-0.05 -0.07,-0.08 -0.63,-0.67 -1.24,-1.35 -1.85,-2.04 -0.88,-0.98 -1.72,-1.98 -2.56,-3.01 -0.49,-0.6 -0.99,-1.2 -1.45,-1.81 -0.57,-0.73 -1.14,-1.46 -1.68,-2.2 -0.07,-0.11 -0.15,-0.22 -0.23,-0.33 -0.55,-0.74 -1.08,-1.48 -1.6,-2.23 -0.03,-0.05 -0.07,-0.11 -0.1,-0.15 -0.51,-0.71 -1,-1.45 -1.48,-2.18 -0.1,-0.16 -0.19,-0.31 -0.3,-0.47 -0.52,-0.78 -1.01,-1.57 -1.49,-2.37 -1.04,-1.7 -2.02,-3.41 -2.97,-5.17 -0.01,-0.04 -0.03,-0.1 -0.05,-0.12 -1.04,-1.92 -2,-3.86 -2.91,-5.86 -0.34,-0.77 -0.7,-1.55 -1.01,-2.34 -0.26,-0.57 -0.51,-1.18 -0.74,-1.76 -0.92,-2.24 -1.75,-4.51 -2.5,-6.84 -1.31,-3.99 -2.38,-8.11 -3.2,-12.31 -0.3,-1.53 -0.56,-3.08 -0.79,-4.64 -0.12,-0.92 -0.26,-1.86 -0.37,-2.79 -0.11,-0.83 -0.21,-1.68 -0.27,-2.52 -0.1,-0.85 -0.16,-1.68 -0.22,-2.53 -0.05,-0.75 -0.11,-1.5 -0.15,-2.26 -0.01,-0.51 -0.04,-1.01 -0.05,-1.53 -0.01,-0.1 -0.01,-0.21 -0.01,-0.31 -0.03,-0.49 -0.04,-1 -0.04,-1.5 -0.01,-0.7 -0.03,-1.4 -0.03,-2.09 0,-0.75 0.01,-1.5 0.03,-2.24 0.01,-0.55 0.03,-1.08 0.05,-1.63 0.04,-1.37 0.11,-2.74 0.22,-4.09 0.04,-0.66 0.11,-1.31 0.16,-1.96 0.01,-0.14 0.03,-0.27 0.04,-0.41 0.07,-0.66 0.14,-1.31 0.22,-1.97 0.07,-0.57 0.14,-1.15 0.22,-1.72 0,-0.07 0.01,-0.14 0.03,-0.21 0.16,-1.23 0.34,-2.45 0.56,-3.65 0.15,-0.9 0.31,-1.79 0.49,-2.68 0.01,-0.1 0.04,-0.21 0.05,-0.3 0.57,-2.83 1.26,-5.62 2.05,-8.37 0.31,-1.09 0.66,-2.18 1,-3.26 0.97,-2.93 2.04,-5.8 3.26,-8.61 0.4,-0.94 0.82,-1.87 1.24,-2.79 0.41,-0.93 0.86,-1.85 1.31,-2.75 0.38,-0.79 0.78,-1.57 1.2,-2.35 0.22,-0.4 0.44,-0.81 0.66,-1.2 0.31,-0.59 0.64,-1.2 1,-1.79 0.47,-0.83 0.94,-1.64 1.44,-2.45 0.51,-0.81 1,-1.6 1.52,-2.39 0.52,-0.79 1.04,-1.59 1.57,-2.37 0.53,-0.78 1.08,-1.56 1.64,-2.33 0.26,-0.36 0.52,-0.71 0.81,-1.07 0.04,-0.08 0.1,-0.16 0.16,-0.23 0.04,-0.08 0.11,-0.16 0.18,-0.23 0.01,-0.04 0.04,-0.08 0.08,-0.12 0.11,-0.15 0.22,-0.31 0.36,-0.47 0.01,-0.03 0.03,-0.05 0.07,-0.08 0.52,-0.71 1.08,-1.41 1.64,-2.09 0.23,-0.29 0.48,-0.59 0.73,-0.88 0.18,-0.23 0.36,-0.45 0.55,-0.67 0.19,-0.23 0.38,-0.45 0.57,-0.67 0.15,-0.19 0.31,-0.38 0.49,-0.57 0.41,-0.48 0.83,-0.96 1.26,-1.42 0.79,-0.9 1.63,-1.79 2.49,-2.67 11.51,-11.93 25.82,-21.14 41.89,-26.57 -17.58,4.47 -33.33,13.48 -45.94,25.73 -1.09,1.05 -2.18,2.13 -3.23,3.26 -1.09,1.18 -2.18,2.37 -3.21,3.58 -1.16,1.34 -2.27,2.71 -3.35,4.1 -6.94,8.96 -12.44,19.13 -16.09,30.1 -0.36,1.08 -0.7,2.16 -1.03,3.26 -0.82,2.75 -1.53,5.54 -2.11,8.37 -0.23,1.08 -0.44,2.16 -0.63,3.26 -0.21,1.19 -0.38,2.38 -0.55,3.58 -0.19,1.35 -0.36,2.72 -0.48,4.1 -0.31,3.26 -0.48,6.57 -0.48,9.92 0,6.91 0.68,13.65 1.98,20.18 0.22,1.09 0.45,2.18 0.71,3.26 0.73,3.08 1.57,6.1 2.59,9.06 0.36,1.09 0.74,2.18 1.14,3.26 0.45,1.2 0.92,2.41 1.42,3.58 0.56,1.38 1.18,2.75 1.82,4.1 5.29,11.33 12.61,21.52 21.49,30.1 1.14,1.14 2.31,2.2 3.5,3.26 11.97,10.59 26.46,18.41 42.44,22.48 -15.69,-5.29 -29.73,-14.2 -41.1,-25.73 z"
   id="path262"
   style="fill:#212121;fill-opacity:1"
   inkscape:connector-curvature="0" />
	</g><g
     style="opacity:1;fill:#212121;fill-opacity:1"
     id="g285">
		<radialGradient
   id="SVGID_13_"
   cx="235.0092"
   cy="82.906898"
   r="159.1004"
   gradientUnits="userSpaceOnUse">
			<stop
   offset="0"
   style="stop-color:#808080"
   id="stop266" />
			<stop
   offset="0.25"
   style="stop-color:#858585"
   id="stop268" />
			<stop
   offset="0.25"
   style="stop-color:#808080"
   id="stop270" />
			<stop
   offset="0.5"
   style="stop-color:#808080"
   id="stop272" />
			<stop
   offset="0.6448"
   style="stop-color:#A0A0A0"
   id="stop274" />
			<stop
   offset="0.75"
   style="stop-color:#B3B3B3"
   id="stop276" />
			<stop
   offset="0.8948"
   style="stop-color:#D3D3D3"
   id="stop278" />
			<stop
   offset="1"
   style="stop-color:#E6E6E6"
   id="stop280" />
		</radialGradient>
		<path
   class="st13"
   d="m 363.44,140.08 c -0.12,-1.38 -0.29,-2.75 -0.48,-4.1 -0.16,-1.2 -0.34,-2.39 -0.55,-3.58 -0.19,-1.09 -0.4,-2.18 -0.63,-3.26 -0.57,-2.83 -1.29,-5.62 -2.11,-8.37 -0.33,-1.09 -0.67,-2.18 -1.03,-3.26 -3.65,-10.97 -9.15,-21.14 -16.09,-30.1 -1.08,-1.4 -2.19,-2.76 -3.34,-4.1 -1.05,-1.22 -2.12,-2.41 -3.23,-3.58 -1.05,-1.12 -2.13,-2.2 -3.23,-3.26 -12.61,-12.24 -28.37,-21.26 -45.94,-25.73 16.07,5.43 30.38,14.64 41.89,26.57 0.68,0.7 1.35,1.41 2,2.13 0.1,0.1 0.19,0.19 0.27,0.29 0.25,0.27 0.49,0.55 0.73,0.82 0.25,0.26 0.48,0.53 0.71,0.82 0.38,0.42 0.75,0.85 1.12,1.29 0.18,0.21 0.36,0.44 0.53,0.66 h 0.01 c 0.04,0.07 0.1,0.12 0.15,0.19 0.47,0.56 0.93,1.12 1.37,1.7 0.14,0.16 0.27,0.33 0.4,0.49 0.45,0.56 0.89,1.14 1.3,1.72 h 0.01 c 0.12,0.16 0.23,0.33 0.36,0.49 0.52,0.67 1.01,1.37 1.49,2.07 0.01,0.03 0.04,0.05 0.05,0.08 0.15,0.21 0.3,0.42 0.45,0.64 0.31,0.45 0.63,0.9 0.92,1.37 0.3,0.44 0.6,0.88 0.88,1.33 0.44,0.67 0.86,1.35 1.27,2.02 0.04,0.05 0.07,0.1 0.1,0.15 0.49,0.81 0.97,1.61 1.44,2.45 0.36,0.59 0.68,1.2 1,1.79 0,0.01 0.01,0.01 0.01,0.03 0.03,0.05 0.05,0.1 0.08,0.15 0.21,0.34 0.38,0.68 0.56,1.03 0.42,0.78 0.82,1.56 1.2,2.35 0.45,0.9 0.9,1.82 1.31,2.75 0.42,0.92 0.85,1.85 1.24,2.79 1.22,2.8 2.3,5.68 3.26,8.61 0.34,1.08 0.68,2.16 1,3.26 0.79,2.75 1.48,5.54 2.05,8.37 0.01,0.1 0.04,0.21 0.05,0.3 0.18,0.89 0.34,1.78 0.49,2.68 0.03,0.1 0.04,0.18 0.05,0.27 0.21,1.19 0.38,2.38 0.53,3.58 0.08,0.51 0.14,1.01 0.19,1.52 0.1,0.7 0.16,1.4 0.23,2.09 0,0.03 0,0.05 0.01,0.08 0.01,0.14 0.03,0.27 0.04,0.41 0.05,0.64 0.12,1.3 0.16,1.96 0.07,0.88 0.12,1.75 0.16,2.63 v 0.01 c 0.03,0.41 0.04,0.81 0.05,1.22 v 0.23 c 0.03,0.53 0.04,1.08 0.05,1.63 0.01,0.74 0.03,1.49 0.03,2.24 0,0.49 0,0.97 -0.01,1.46 v 0.36 c 0,0.1 0,0.19 -0.01,0.27 0,0.51 -0.01,1.01 -0.04,1.5 0,0.11 0,0.22 -0.01,0.31 -0.01,0.52 -0.04,1.03 -0.05,1.53 -0.01,0.07 -0.01,0.14 -0.01,0.21 -0.04,0.68 -0.08,1.37 -0.14,2.05 -0.05,0.85 -0.14,1.7 -0.22,2.54 -0.07,0.83 -0.16,1.67 -0.27,2.5 -0.08,0.83 -0.19,1.67 -0.33,2.49 -0.23,1.67 -0.51,3.31 -0.82,4.94 -0.83,4.2 -1.9,8.32 -3.2,12.31 -0.75,2.33 -1.59,4.6 -2.5,6.84 -0.56,1.38 -1.15,2.75 -1.76,4.1 -1.29,2.82 -2.68,5.55 -4.21,8.22 -0.75,1.34 -1.55,2.65 -2.37,3.95 -0.38,0.64 -0.81,1.29 -1.23,1.93 -0.41,0.64 -0.85,1.27 -1.29,1.9 -0.42,0.63 -0.88,1.26 -1.33,1.87 -0.47,0.66 -0.94,1.3 -1.44,1.96 -0.44,0.57 -0.88,1.14 -1.33,1.7 -0.45,0.59 -0.92,1.16 -1.41,1.74 -1.94,2.35 -3.99,4.64 -6.16,6.83 -11.37,11.53 -25.39,20.44 -41.1,25.73 15.98,-4.06 30.45,-11.89 42.44,-22.48 1.19,-1.05 2.37,-2.13 3.5,-3.26 8.88,-8.58 16.2,-18.77 21.49,-30.1 0.64,-1.35 1.26,-2.72 1.82,-4.1 0.51,-1.18 0.97,-2.38 1.42,-3.58 0.4,-1.08 0.78,-2.16 1.14,-3.26 1.01,-2.96 1.86,-5.98 2.59,-9.06 0.26,-1.08 0.49,-2.16 0.71,-3.26 1.3,-6.53 1.98,-13.27 1.98,-20.18 0.06,-3.31 -0.11,-6.62 -0.42,-9.88 z"
   id="path283"
   style="fill:#212121;fill-opacity:1"
   inkscape:connector-curvature="0" />
	</g><path
     class="st10"
     d="m 348.65,193.44 c 0.28,-0.62 0.55,-1.23 0.83,-1.86 -0.27,0.62 -0.52,1.24 -0.8,1.86 z"
     id="path287"
     inkscape:connector-curvature="0"
     style="opacity:1;fill:#212121;fill-opacity:1" /><path
     class="st10"
     d="m 349.63,191.21 c -0.05,0.13 -0.11,0.25 -0.16,0.37 0.06,-0.12 0.11,-0.25 0.16,-0.37 z"
     id="path289"
     inkscape:connector-curvature="0"
     style="opacity:1;fill:#212121;fill-opacity:1" /><path
     class="st10"
     d="m 350.44,189.33 c -0.26,0.63 -0.54,1.25 -0.81,1.87 0.27,-0.62 0.53,-1.25 0.78,-1.87 z"
     id="path291"
     inkscape:connector-curvature="0"
     style="opacity:1;fill:#212121;fill-opacity:1" /><path
     class="st9"
     d="m 415.3,189.33 c 0,1.14 -0.47,2.16 -1.2,2.9 -0.74,0.75 -1.76,1.2 -2.9,1.2 h -56.94 c 0.64,-1.35 1.26,-2.72 1.82,-4.1 z"
     id="path293"
     inkscape:connector-curvature="0"
     style="opacity:1;fill:#212121;fill-opacity:1" /><circle
     r="89.841286"
     cy="150"
     cx="253.285"
     id="path1955"
     style="opacity:1;fill:#212121;fill-opacity:1;fill-rule:evenodd;stroke:none;stroke-width:5.74423838;stroke-linecap:round;stroke-linejoin:round;stroke-miterlimit:4;stroke-dasharray:none;stroke-dashoffset:0;stroke-opacity:1;paint-order:stroke fill markers" /></g></svg>